<?xml version="1.0" encoding="utf-8"?>
<!-- Generator: Adobe Illustrator 23.0.3, SVG Export Plug-In . SVG Version: 6.00 Build 0)  -->
<svg version="1.1" id="Capa_1" xmlns="http://www.w3.org/2000/svg" xmlns:xlink="http://www.w3.org/1999/xlink" x="0px" y="0px"
	 viewBox="0 0 475.1 475.1" style="enable-background:new 0 0 475.1 475.1;" xml:space="preserve">
<style type="text/css">
	.st0{fill:url(#SVGID_1_);}
</style>
<g>
	<linearGradient id="SVGID_1_" gradientUnits="userSpaceOnUse" x1="0" y1="237.538" x2="475.075" y2="237.538">
		<stop  offset="0" style="stop-color:#1245C6"/>
		<stop  offset="1" style="stop-color:#9909B7"/>
	</linearGradient>
	<path class="st0" d="M475.1,186.6c0-7-5.3-11.4-16-13.1l-143.3-20.8L251.5,22.7c-3.6-7.8-8.3-11.7-14-11.7c-5.7,0-10.4,3.9-14,11.7
		l-64.2,129.9L16,173.4c-10.7,1.7-16,6.1-16,13.1c0,4,2.4,8.6,7.1,13.7l103.9,101.1L86.5,444.1c-0.4,2.7-0.6,4.6-0.6,5.7
		c0,4,1,7.4,3,10.1c2,2.8,5,4.1,9,4.1c3.4,0,7.2-1.1,11.4-3.4l128.2-67.4l128.2,67.4c4,2.3,7.8,3.4,11.4,3.4c3.8,0,6.7-1.4,8.7-4.1
		c2-2.8,3-6.1,3-10.1c0-2.5-0.1-4.4-0.3-5.7L364,301.3l103.6-101.1C472.6,195.3,475.1,190.8,475.1,186.6z"/>
</g>
</svg>
